<svg viewBox="0 0 32 32" fill="none" xmlns="http://www.w3.org/2000/svg" id="Spiral-Calendar-Flat--Streamline-Fluent-Emoji" height="32" width="32">
  <desc>
    Spiral Calendar Flat Streamline Emoji: https://streamlinehq.com
  </desc>
  <path d="m2 9.00001 13.2666 -2.84285c0.4835 -0.10359 0.9833 -0.10359 1.4668 0L30 9.00001V24.8c0 2.8719 -2.3281 5.2 -5.2 5.2H7.2C4.32812 30 2 27.6719 2 24.8V9.00001Z" fill="#b4acbc" stroke-width="1"></path>
  <path d="M3 10.9048V24.5C3 26.9853 5.01449 29 7.49977 29L23.5 29l5.5 -5.6667V10.9048L16 9 3 10.9048Z" fill="#f3eef8" stroke-width="1"></path>
  <path d="M8.2 13c-0.11046 0 -0.2 0.0895 -0.2 0.2v2.6c0 0.1105 0.08954 0.2 0.2 0.2h2.6c0.1105 0 0.2 -0.0895 0.2 -0.2v-2.6c0 -0.1105 -0.0895 -0.2 -0.2 -0.2H8.2Z" fill="#998ea4" stroke-width="1"></path>
  <path d="M14.7 13c-0.1105 0 -0.2 0.0895 -0.2 0.2v2.6c0 0.1105 0.0895 0.2 0.2 0.2h2.6c0.1105 0 0.2 -0.0895 0.2 -0.2v-2.6c0 -0.1105 -0.0895 -0.2 -0.2 -0.2h-2.6Z" fill="#998ea4" stroke-width="1"></path>
  <path d="M21 13.2c0 -0.1105 0.0895 -0.2 0.2 -0.2h2.6c0.1105 0 0.2 0.0895 0.2 0.2v2.6c0 0.1105 -0.0895 0.2 -0.2 0.2h-2.6c-0.1105 0 -0.2 -0.0895 -0.2 -0.2v-2.6Z" fill="#998ea4" stroke-width="1"></path>
  <path d="M8.2 18c-0.11046 0 -0.2 0.0895 -0.2 0.2v2.6c0 0.1105 0.08954 0.2 0.2 0.2h2.6c0.1105 0 0.2 -0.0895 0.2 -0.2v-2.6c0 -0.1105 -0.0895 -0.2 -0.2 -0.2H8.2Z" fill="#998ea4" stroke-width="1"></path>
  <path d="M14.5 18.2c0 -0.1105 0.0895 -0.2 0.2 -0.2h2.6c0.1105 0 0.2 0.0895 0.2 0.2v2.6c0 0.1105 -0.0895 0.2 -0.2 0.2h-2.6c-0.1105 0 -0.2 -0.0895 -0.2 -0.2v-2.6Z" fill="#998ea4" stroke-width="1"></path>
  <path d="M8.2 23c-0.11046 0 -0.2 0.0895 -0.2 0.2v2.6c0 0.1105 0.08954 0.2 0.2 0.2h2.6c0.1105 0 0.2 -0.0895 0.2 -0.2v-2.6c0 -0.1105 -0.0895 -0.2 -0.2 -0.2H8.2Z" fill="#998ea4" stroke-width="1"></path>
  <path d="M14.5 23.2c0 -0.1105 0.0895 -0.2 0.2 -0.2h2.6c0.1105 0 0.2 0.0895 0.2 0.2v2.6c0 0.1105 -0.0895 0.2 -0.2 0.2h-2.6c-0.1105 0 -0.2 -0.0895 -0.2 -0.2v-2.6Z" fill="#998ea4" stroke-width="1"></path>
  <path d="M21.2 23c-0.1105 0 -0.2 0.0895 -0.2 0.2v2.6c0 0.1105 0.0895 0.2 0.2 0.2h2.6c0.1105 0 0.2 -0.0895 0.2 -0.2v-2.6c0 -0.1105 -0.0895 -0.2 -0.2 -0.2h-2.6Z" fill="#998ea4" stroke-width="1"></path>
  <path d="M30.0098 26.24V23l-4.51 2.5 -2.49 4.5h3.24c2.08 0 3.76 -1.69 3.76 -3.76Z" fill="#998ea4" stroke-width="1"></path>
  <path d="M23.0098 26.76V30l7 -7h-3.24c-2.07 0 -3.76 1.69 -3.76 3.76Z" fill="#e1d8ec" stroke-width="1"></path>
  <path d="M30 8.78525V11H2V8.78525c0 -2.09394 1.6894 -3.79527 3.75866 -3.7852H25.036l0.7276 -0.57073 0.7721 0.58221C28.4685 5.16288 30 6.79154 30 8.78525Z" fill="#0084ce" stroke-width="1"></path>
  <path d="M21.2 18c-0.1105 0 -0.2 0.0895 -0.2 0.2v2.6c0 0.1105 0.0895 0.2 0.2 0.2h2.6c0.1105 0 0.2 -0.0895 0.2 -0.2v-2.6c0 -0.1105 -0.0895 -0.2 -0.2 -0.2h-2.6Z" fill="#0084ce" stroke-width="1"></path>
  <path d="M11.5205 5c-0.0135 0.08803 -0.0205 0.1782 -0.0205 0.27 0 0.75203 0.469 1.39451 1.1305 1.65093 0.3276 0.127 0.6195 0.40176 0.6195 0.75313 0 0.47737 -0.3954 0.87495 -0.8554 0.74745C11.0137 8.03877 10 6.77277 10 5.27c0 -0.10257 0.0047 -0.20403 0.014 -0.30419C9.86975 4.13321 9.14382 3.5 8.27 3.5c-0.97754 0 -1.77 0.79246 -1.77 1.77 0 0.75203 0.469 1.39451 1.13046 1.65093 0.32761 0.127 0.61954 0.40176 0.61954 0.75313 0 0.47737 -0.39535 0.87495 -0.85538 0.74745C6.01371 8.03877 5 6.77277 5 5.27 5 3.46403 6.46403 2 8.27 2c1.0028 0 1.9002 0.45139 2.5 1.16207C11.3698 2.45139 12.2672 2 13.27 2s1.9002 0.45139 2.5 1.16207C16.3698 2.45139 17.2672 2 18.27 2s1.9002 0.45139 2.5 1.16207C21.3698 2.45139 22.2672 2 23.27 2c1.7151 0 3.1217 1.32034 3.259 3h-1.5095c-0.13 -0.84939 -0.8638 -1.5 -1.7495 -1.5 -0.8738 0 -1.5998 0.63321 -1.744 1.46582 0.0011 0.01138 0.0021 0.02277 0.003 0.03418h-0.0085c-0.0135 0.08803 -0.0205 0.1782 -0.0205 0.27 0 0.75203 0.469 1.39451 1.1305 1.65093 0.3276 0.127 0.6195 0.40176 0.6195 0.75313 0 0.47737 -0.3954 0.87495 -0.8554 0.74745C21.0137 8.03877 20 6.77277 20 5.27c0 -0.10257 0.0047 -0.20403 0.014 -0.30419C19.8698 4.13321 19.1438 3.5 18.27 3.5s-1.5998 0.63321 -1.744 1.46582L16.529 5h-0.0085c-0.0135 0.08803 -0.0205 0.1782 -0.0205 0.27 0 0.75203 0.469 1.39451 1.1305 1.65093 0.3276 0.127 0.6195 0.40176 0.6195 0.75313 0 0.47737 -0.3954 0.87495 -0.8554 0.74745C16.0137 8.03877 15 6.77277 15 5.27c0 -0.10257 0.0047 -0.20403 0.014 -0.30419C14.8698 4.13321 14.1438 3.5 13.27 3.5s-1.5998 0.63321 -1.744 1.46581L11.529 5h-0.0085Z" fill="#cdc4d6" stroke-width="1"></path>
</svg>